<mxfile host="Electron" agent="Mozilla/5.0 (Windows NT 10.0; Win64; x64) AppleWebKit/537.36 (KHTML, like Gecko) draw.io/28.2.5 Chrome/138.0.7204.251 Electron/37.6.1 Safari/537.36" version="28.2.5">
  <diagram name="ページ1" id="II2tZnJf5AY2gPtVraXT">
    <mxGraphModel dx="936" dy="758" grid="1" gridSize="10" guides="1" tooltips="1" connect="1" arrows="1" fold="1" page="1" pageScale="1" pageWidth="827" pageHeight="1169" math="0" shadow="0">
      <root>
        <mxCell id="0" />
        <mxCell id="1" parent="0" />
        <mxCell id="7cMS8DYF0GJ8WoQaO69P-9" style="edgeStyle=orthogonalEdgeStyle;rounded=0;orthogonalLoop=1;jettySize=auto;html=1;exitX=1;exitY=0.5;exitDx=0;exitDy=0;entryX=0;entryY=0.5;entryDx=0;entryDy=0;" parent="1" source="7cMS8DYF0GJ8WoQaO69P-1" target="7cMS8DYF0GJ8WoQaO69P-2" edge="1">
          <mxGeometry relative="1" as="geometry" />
        </mxCell>
        <mxCell id="7cMS8DYF0GJ8WoQaO69P-10" style="edgeStyle=orthogonalEdgeStyle;rounded=0;orthogonalLoop=1;jettySize=auto;html=1;exitX=1;exitY=0.25;exitDx=0;exitDy=0;entryX=0;entryY=0.5;entryDx=0;entryDy=0;" parent="1" source="7cMS8DYF0GJ8WoQaO69P-1" target="7cMS8DYF0GJ8WoQaO69P-3" edge="1">
          <mxGeometry relative="1" as="geometry" />
        </mxCell>
        <mxCell id="7cMS8DYF0GJ8WoQaO69P-15" style="edgeStyle=orthogonalEdgeStyle;rounded=0;orthogonalLoop=1;jettySize=auto;html=1;exitX=0;exitY=0.5;exitDx=0;exitDy=0;entryX=1;entryY=0.5;entryDx=0;entryDy=0;" parent="1" source="7cMS8DYF0GJ8WoQaO69P-1" target="7cMS8DYF0GJ8WoQaO69P-14" edge="1">
          <mxGeometry relative="1" as="geometry" />
        </mxCell>
        <mxCell id="7cMS8DYF0GJ8WoQaO69P-1" value="Nginx&lt;div&gt;/&lt;/div&gt;&lt;div&gt;/api&lt;/div&gt;" style="rounded=0;whiteSpace=wrap;html=1;" parent="1" vertex="1">
          <mxGeometry x="140" y="390" width="110" height="50" as="geometry" />
        </mxCell>
        <mxCell id="7cMS8DYF0GJ8WoQaO69P-12" style="edgeStyle=orthogonalEdgeStyle;rounded=0;orthogonalLoop=1;jettySize=auto;html=1;exitX=1;exitY=0.5;exitDx=0;exitDy=0;entryX=0;entryY=0.5;entryDx=0;entryDy=0;" parent="1" source="7cMS8DYF0GJ8WoQaO69P-2" target="7cMS8DYF0GJ8WoQaO69P-4" edge="1">
          <mxGeometry relative="1" as="geometry" />
        </mxCell>
        <mxCell id="7cMS8DYF0GJ8WoQaO69P-13" style="edgeStyle=orthogonalEdgeStyle;rounded=0;orthogonalLoop=1;jettySize=auto;html=1;exitX=0.5;exitY=1;exitDx=0;exitDy=0;entryX=0;entryY=0.5;entryDx=0;entryDy=0;" parent="1" source="7cMS8DYF0GJ8WoQaO69P-2" target="7cMS8DYF0GJ8WoQaO69P-5" edge="1">
          <mxGeometry relative="1" as="geometry" />
        </mxCell>
        <mxCell id="7cMS8DYF0GJ8WoQaO69P-2" value="Express Server&lt;div&gt;(Backend)&lt;/div&gt;" style="rounded=0;whiteSpace=wrap;html=1;" parent="1" vertex="1">
          <mxGeometry x="310" y="390" width="110" height="50" as="geometry" />
        </mxCell>
        <mxCell id="7cMS8DYF0GJ8WoQaO69P-11" style="edgeStyle=orthogonalEdgeStyle;rounded=0;orthogonalLoop=1;jettySize=auto;html=1;exitX=0.5;exitY=1;exitDx=0;exitDy=0;entryX=0.5;entryY=0;entryDx=0;entryDy=0;" parent="1" source="7cMS8DYF0GJ8WoQaO69P-3" target="7cMS8DYF0GJ8WoQaO69P-2" edge="1">
          <mxGeometry relative="1" as="geometry" />
        </mxCell>
        <mxCell id="7cMS8DYF0GJ8WoQaO69P-3" value="React Server&lt;div&gt;(Frontend)&lt;/div&gt;" style="rounded=0;whiteSpace=wrap;html=1;" parent="1" vertex="1">
          <mxGeometry x="310" y="300" width="110" height="50" as="geometry" />
        </mxCell>
        <mxCell id="7cMS8DYF0GJ8WoQaO69P-7" style="edgeStyle=orthogonalEdgeStyle;rounded=0;orthogonalLoop=1;jettySize=auto;html=1;exitX=0.25;exitY=0;exitDx=0;exitDy=0;entryX=0.25;entryY=1;entryDx=0;entryDy=0;" parent="1" source="7cMS8DYF0GJ8WoQaO69P-4" target="7cMS8DYF0GJ8WoQaO69P-6" edge="1">
          <mxGeometry relative="1" as="geometry" />
        </mxCell>
        <mxCell id="7cMS8DYF0GJ8WoQaO69P-4" value="Redis" style="rounded=0;whiteSpace=wrap;html=1;" parent="1" vertex="1">
          <mxGeometry x="490" y="390" width="110" height="50" as="geometry" />
        </mxCell>
        <mxCell id="7cMS8DYF0GJ8WoQaO69P-5" value="Postgres" style="rounded=0;whiteSpace=wrap;html=1;" parent="1" vertex="1">
          <mxGeometry x="490" y="470" width="110" height="50" as="geometry" />
        </mxCell>
        <mxCell id="7cMS8DYF0GJ8WoQaO69P-8" style="edgeStyle=orthogonalEdgeStyle;rounded=0;orthogonalLoop=1;jettySize=auto;html=1;exitX=0.75;exitY=1;exitDx=0;exitDy=0;entryX=0.75;entryY=0;entryDx=0;entryDy=0;" parent="1" source="7cMS8DYF0GJ8WoQaO69P-6" target="7cMS8DYF0GJ8WoQaO69P-4" edge="1">
          <mxGeometry relative="1" as="geometry" />
        </mxCell>
        <mxCell id="7cMS8DYF0GJ8WoQaO69P-6" value="Worker process&lt;div&gt;(Backend)&lt;/div&gt;" style="rounded=0;whiteSpace=wrap;html=1;" parent="1" vertex="1">
          <mxGeometry x="490" y="300" width="110" height="50" as="geometry" />
        </mxCell>
        <mxCell id="7cMS8DYF0GJ8WoQaO69P-14" value="Browser&lt;div&gt;(User)&lt;/div&gt;" style="rounded=0;whiteSpace=wrap;html=1;" parent="1" vertex="1">
          <mxGeometry x="30" y="390" width="70" height="50" as="geometry" />
        </mxCell>
        <mxCell id="7cMS8DYF0GJ8WoQaO69P-16" value="RedisDBの値が変わったらフィボナッチを計算して結果をRedisに返すプロセス" style="text;html=1;align=left;verticalAlign=middle;whiteSpace=wrap;rounded=0;" parent="1" vertex="1">
          <mxGeometry x="620" y="310" width="150" height="30" as="geometry" />
        </mxCell>
        <mxCell id="7cMS8DYF0GJ8WoQaO69P-17" value="User&lt;span style=&quot;background-color: transparent; color: light-dark(rgb(0, 0, 0), rgb(255, 255, 255));&quot;&gt;が入力した値を保存するためのDB&lt;/span&gt;" style="text;html=1;align=left;verticalAlign=middle;whiteSpace=wrap;rounded=0;" parent="1" vertex="1">
          <mxGeometry x="620" y="470" width="150" height="50" as="geometry" />
        </mxCell>
        <mxCell id="7cMS8DYF0GJ8WoQaO69P-18" value="Userが入力した値や計算値を保存するためのDB" style="text;html=1;align=left;verticalAlign=middle;whiteSpace=wrap;rounded=0;" parent="1" vertex="1">
          <mxGeometry x="620" y="390" width="150" height="50" as="geometry" />
        </mxCell>
        <mxCell id="7cMS8DYF0GJ8WoQaO69P-19" value="Userはフィボナッチを計算するためのIndex値を一つ指定する" style="text;html=1;align=left;verticalAlign=middle;whiteSpace=wrap;rounded=0;" parent="1" vertex="1">
          <mxGeometry x="10" y="460" width="110" height="50" as="geometry" />
        </mxCell>
        <mxCell id="7cMS8DYF0GJ8WoQaO69P-20" value="Complexアプリ概要&lt;div&gt;（複数の機能のコンテナを動かして連携させる）&lt;/div&gt;" style="rounded=1;whiteSpace=wrap;html=1;fillColor=#a0522d;strokeColor=#6D1F00;fontColor=#ffffff;" parent="1" vertex="1">
          <mxGeometry x="40" y="230" width="200" height="70" as="geometry" />
        </mxCell>
      </root>
    </mxGraphModel>
  </diagram>
</mxfile>
